<svg xmlns="http://www.w3.org/2000/svg" width="764.848" height="541.291" viewBox="0 0 764.848 541.291">
  <g id="faq_graphic" transform="translate(-338.607 -1238.301)">
    <path id="Path_177" data-name="Path 177" d="M8729.607,1561.692l656.848-76.833-78.34,147.64Z" transform="translate(-8283 12.391)" fill="#333537"/>
    <path id="Path_172" data-name="Path 172" d="M9386.455,1561.692l-656.848-76.833,78.34,147.64Z" transform="translate(-8391 24.391)" fill="#3a3d3f"/>
    <g id="marker2" transform="translate(649 15)">
      <line id="Line_14" data-name="Line 14" y2="51" transform="translate(214.5 1521.5)" fill="none" stroke="#806fb2" stroke-linecap="square" stroke-width="8"/>
      <circle id="Ellipse_37" data-name="Ellipse 37" cx="14" cy="14" r="14" transform="translate(201 1494)" fill="#806fb2"/>
    </g>
    <path id="Path_173" data-name="Path 173" d="M8729.607,1561.692l656.848-76.833-78.34,147.64Z" transform="translate(-8288.874 60.679)" fill="#484a4d"/>
    <path id="Path_174" data-name="Path 174" d="M9386.455,1561.692l-656.848-76.833,78.34,147.64Z" transform="translate(-8364.72 83.127)" fill="#55585b"/>
    <path id="Path_175" data-name="Path 175" d="M8729.607,1561.692l656.848-76.833-78.34,147.64Z" transform="translate(-8288.874 97.625)" fill="#5f6366"/>
    <path id="Path_176" data-name="Path 176" d="M9386.455,1561.692l-656.848-76.833,78.34,147.64Z" transform="translate(-8364.72 125.52)" fill="#676b6f"/>
    <g id="marker0" transform="translate(353 109)">
      <line id="Line_14-2" data-name="Line 14" y2="51" transform="translate(214.5 1521.5)" fill="none" stroke="#8d7ac5" stroke-linecap="square" stroke-width="8"/>
      <circle id="Ellipse_37-2" data-name="Ellipse 37" cx="14" cy="14" r="14" transform="translate(201 1494)" fill="#8d7ac5"/>
    </g>
    <g id="marker1" transform="translate(766 42)">
      <line id="Line_14-3" data-name="Line 14" y2="51" transform="translate(214.5 1521.5)" fill="none" stroke="#806fb2" stroke-linecap="square" stroke-width="8"/>
      <path id="Path_186" data-name="Path 186" d="M14,0A14,14,0,1,1,0,14,14,14,0,0,1,14,0Z" transform="translate(201 1494)" fill="#806fb2"/>
    </g>
    <g id="marker3" transform="translate(261 -13)">
      <line id="Line_14-4" data-name="Line 14" y2="51" transform="translate(214.5 1521.5)" fill="none" stroke="#6f5ea0" stroke-linecap="square" stroke-width="8"/>
      <circle id="Ellipse_37-3" data-name="Ellipse 37" cx="14" cy="14" r="14" transform="translate(201 1494)" fill="#6f5ea0"/>
    </g>
    <path id="Path_183" data-name="Path 183" d="M8729.607,1561.692l656.848-76.833-78.34,147.64Z" transform="translate(-8295.874 134.48)" fill="#73777a"/>
    <path id="Path_185" data-name="Path 185" d="M373.733,1659.339l660.42,53.425-41,68.828H451.994Z" transform="translate(7 -2)" fill="#767b80"/>
    <g id="horizon" transform="translate(2 -12)">
      <g id="briefcase" transform="translate(-84 60)">
        <rect id="Rectangle_64" data-name="Rectangle 64" width="173" height="96" rx="15" transform="translate(706 1378)" fill="#8d7ac5"/>
        <path id="Path_171" data-name="Path 171" d="M9034.707,1378v-15.8h40.4V1378" transform="translate(-8262)" fill="none" stroke="#8d7ac5" stroke-linejoin="round" stroke-width="10"/>
      </g>
      <g id="question" transform="matrix(0.875, 0.485, -0.485, 0.875, -389.776, 278.24)">
        <path id="Path_187" data-name="Path 187" d="M14049.908,350.886s7.288-3.6,11.712-1.05,5.331,8.885,2.827,13.086-10.286,5.67-10.286,5.67v10.2" transform="translate(-12422)" fill="none" stroke="#8d7ac5" stroke-linecap="round" stroke-linejoin="round" stroke-width="8"/>
        <ellipse id="Ellipse_38" data-name="Ellipse 38" cx="4.46" cy="4.46" rx="4.46" ry="4.46" transform="translate(1627.318 388.153)" fill="#8d7ac5"/>
      </g>
      <g id="question-2" data-name="question" transform="translate(-903.184 1333.459) rotate(-13)">
        <path id="Path_187-2" data-name="Path 187" d="M14049.908,350.886s7.288-3.6,11.712-1.05,5.331,8.885,2.827,13.086-10.286,5.67-10.286,5.67v10.2" transform="translate(-12422)" fill="none" stroke="#6a50b7" stroke-linecap="round" stroke-linejoin="round" stroke-width="8"/>
        <ellipse id="Ellipse_38-2" data-name="Ellipse 38" cx="3.935" cy="3.935" rx="3.935" ry="3.935" transform="translate(1629.9 384.59)" fill="#6a50b7"/>
      </g>
      <g id="question-3" data-name="question" transform="translate(-896.661 717.927) rotate(8)">
        <path id="Path_187-3" data-name="Path 187" d="M14049.908,350.886s7.288-3.6,11.712-1.05,5.331,8.885,2.827,13.086-10.286,5.67-10.286,5.67v10.2" transform="translate(-12422)" fill="none" stroke="#8d7ac5" stroke-linecap="round" stroke-linejoin="round" stroke-width="8"/>
        <ellipse id="Ellipse_38-3" data-name="Ellipse 38" cx="3.706" cy="3.706" rx="3.706" ry="3.706" transform="translate(1628.088 384.456)" fill="#8d7ac5"/>
      </g>
      <g id="question-4" data-name="question" transform="matrix(0.921, -0.391, 0.391, 0.921, -1222.317, 1758.553)">
        <path id="Path_187-4" data-name="Path 187" d="M14049.908,350.886s7.288-3.6,11.712-1.05,5.331,8.885,2.827,13.086-10.286,5.67-10.286,5.67v10.2" transform="translate(-12422)" fill="none" stroke="#8d7ac5" stroke-linecap="round" stroke-linejoin="round" stroke-width="8"/>
        <ellipse id="Ellipse_38-4" data-name="Ellipse 38" cx="4.302" cy="4.302" rx="4.302" ry="4.302" transform="translate(1628.984 384.603)" fill="#8d7ac5"/>
      </g>
      <g id="question-5" data-name="question" transform="matrix(0.875, 0.485, -0.485, 0.875, -308.776, 351.24)">
        <path id="Path_187-5" data-name="Path 187" d="M14049.908,350.886s7.288-3.6,11.712-1.05,5.331,8.885,2.827,13.086-10.286,5.67-10.286,5.67v10.2" transform="translate(-12422)" fill="none" stroke="#8d7ac5" stroke-linecap="round" stroke-linejoin="round" stroke-width="8"/>
        <ellipse id="Ellipse_38-5" data-name="Ellipse 38" cx="4.46" cy="4.46" rx="4.46" ry="4.46" transform="translate(1630.088 386.255)" fill="#8d7ac5"/>
      </g>
      <g id="question-6" data-name="question" transform="translate(-1045.846 1729.308) rotate(-24)">
        <path id="Path_187-6" data-name="Path 187" d="M14049.908,350.886s7.288-3.6,11.712-1.05,5.331,8.885,2.827,13.086-10.286,5.67-10.286,5.67v10.2" transform="translate(-12422)" fill="none" stroke="#806fb2" stroke-linecap="round" stroke-linejoin="round" stroke-width="8"/>
        <circle id="Ellipse_38-6" data-name="Ellipse 38" cx="4" cy="4" r="4" transform="translate(1629.507 385.32)" fill="#806fb2"/>
      </g>
      <g id="question-7" data-name="question" transform="translate(-1031.661 682.927) rotate(8)">
        <path id="Path_187-7" data-name="Path 187" d="M14049.908,350.886s7.288-3.6,11.712-1.05,5.331,8.885,2.827,13.086-10.286,5.67-10.286,5.67v10.2" transform="translate(-12422)" fill="none" stroke="#b8b0d3" stroke-linecap="round" stroke-linejoin="round" stroke-width="8"/>
        <ellipse id="Ellipse_38-7" data-name="Ellipse 38" cx="3.706" cy="3.706" rx="3.706" ry="3.706" transform="translate(1628.799 384.767)" fill="#b8b0d3"/>
      </g>
      <g id="question-8" data-name="question" transform="translate(-721.846 1614.308) rotate(-24)">
        <path id="Path_187-8" data-name="Path 187" d="M14049.908,350.886s7.288-3.6,11.712-1.05,5.331,8.885,2.827,13.086-10.286,5.67-10.286,5.67v10.2" transform="translate(-12422)" fill="none" stroke="#b8b0d3" stroke-linecap="round" stroke-linejoin="round" stroke-width="8"/>
        <ellipse id="Ellipse_38-8" data-name="Ellipse 38" cx="4.332" cy="4.332" rx="4.332" ry="4.332" transform="translate(1628.601 385.53)" fill="#b8b0d3"/>
      </g>
      <g id="question-9" data-name="question" transform="translate(-1128.661 746.927) rotate(8)">
        <path id="Path_187-9" data-name="Path 187" d="M14049.908,350.886s7.288-3.6,11.712-1.05,5.331,8.885,2.827,13.086-10.286,5.67-10.286,5.67v10.2" transform="translate(-12422)" fill="none" stroke="rgba(184,176,211,0.8)" stroke-linecap="round" stroke-linejoin="round" stroke-width="8"/>
        <ellipse id="Ellipse_38-9" data-name="Ellipse 38" cx="3.706" cy="3.706" rx="3.706" ry="3.706" transform="translate(1628.088 384.456)" fill="rgba(184,176,211,0.8)"/>
      </g>
      <g id="question-10" data-name="question" transform="matrix(0.875, 0.485, -0.485, 0.875, -243.776, 247.24)">
        <path id="Path_187-10" data-name="Path 187" d="M14049.908,350.886s7.288-3.6,11.712-1.05,5.331,8.885,2.827,13.086-10.286,5.67-10.286,5.67v10.2" transform="translate(-12422)" fill="none" stroke="#b7afcc" stroke-linecap="round" stroke-linejoin="round" stroke-width="8"/>
        <ellipse id="Ellipse_38-10" data-name="Ellipse 38" cx="4.46" cy="4.46" rx="4.46" ry="4.46" transform="translate(1627.318 388.153)" fill="#b7afcc"/>
      </g>
    </g>
  </g>
</svg>
