<svg xmlns="http://www.w3.org/2000/svg" viewBox="0 0 403 601"><defs><style>.cls-1{fill:#f4f4f4;}.cls-2{fill:#fff;}.cls-3{fill:none;stroke:#111;stroke-miterlimit:10;stroke-width:11px;}</style></defs><title>dec-journey-art</title><g id="Layer_2" data-name="Layer 2"><g id="Layer_1-2" data-name="Layer 1"><rect class="cls-1" width="403" height="601"/><path class="cls-2" d="M403,151.38a94.51,94.51,0,1,0,0,136.23"/><line class="cls-3" x1="317.5" y1="208.5" x2="207.5" y2="240.5"/><circle class="cls-2" cx="76.5" cy="37.5" r="11.5"/><circle class="cls-2" cx="195.5" cy="78.5" r="11.5"/><circle class="cls-2" cx="48.5" cy="235.5" r="11.5"/><circle class="cls-2" cx="127.5" cy="150.5" r="11.5"/><circle class="cls-2" cx="303.5" cy="48.5" r="11.5"/><circle class="cls-2" cx="64.5" cy="375.5" r="11.5"/><circle class="cls-2" cx="127.5" cy="283.5" r="11.5"/><circle class="cls-2" cx="21.5" cy="495.5" r="11.5"/><path class="cls-2" d="M403,601h0V282.11A182.53,182.53,0,0,0,231.4,601H403Z"/><path class="cls-3" d="M107,554a10,10,0,0,0-20,0"/><path class="cls-3" d="M107,554a10,10,0,0,0,20,0"/><path class="cls-3" d="M147,554a10,10,0,0,0-20,0"/><path class="cls-3" d="M147,554a10,10,0,0,0,20,0"/><path class="cls-3" d="M187,554a10,10,0,0,0-20,0"/><path class="cls-3" d="M187,554a10,10,0,0,0,20,0"/><path class="cls-3" d="M227,554a10,10,0,0,0-20,0"/><path class="cls-3" d="M227,554a10,10,0,0,0,20,0"/></g></g></svg>