<svg xmlns="http://www.w3.org/2000/svg" viewBox="0 0 767.2 393.2"><defs><style>.cls-1{fill:none;stroke:#d8d8d8;stroke-miterlimit:10;stroke-width:19px;}.cls-2{fill:#d8d8d8;}</style></defs><title>linechart-placeholder</title><g id="Layer_2" data-name="Layer 2"><g id="Layer_1-2" data-name="Layer 1"><circle class="cls-1" cx="53.6" cy="331.6" r="44.1"/><circle class="cls-1" cx="292.6" cy="53.6" r="44.1"/><circle class="cls-1" cx="434.6" cy="220.6" r="44.1"/><circle class="cls-1" cx="583.6" cy="160.6" r="44.1"/><circle class="cls-1" cx="713.6" cy="339.6" r="44.1"/><path class="cls-2" d="M102.64,318a319.47,319.47,0,0,0,70.9-90.61c16.56-31.32,29.24-64.59,46.94-95.32,9.75-16.91,21-32.69,35.11-46.29,9.27-9-4.88-23.09-14.14-14.14-52.45,50.67-66.92,126.08-108.84,184A295.56,295.56,0,0,1,88.5,303.9c-4.06,3.57-3.65,10.49,0,14.14,4,4,10.08,3.58,14.14,0Z"/><path class="cls-2" d="M483.82,210a385,385,0,0,0,54.66-28.53c10.87-6.83.84-24.15-10.1-17.27a384.92,384.92,0,0,1-54.65,28.53c-5,2.11-6.07,9.44-3.59,13.68,3,5.15,8.69,5.7,13.68,3.59Z"/><path class="cls-2" d="M610,201.3C646.11,224.6,654,273,671.16,309.19c2.31,4.89,9.31,6.15,13.68,3.59,5-2.92,5.91-8.78,3.59-13.68-19.21-40.61-27.92-89-68.37-115.07-10.86-7-20.9,10.32-10.1,17.27Z"/><path class="cls-2" d="M329.5,83.22c30.2,28.83,36.06,73.63,57.87,108,6.89,10.83,24.2.81,17.27-10.1-22.91-36-29.15-81.59-61-112-9.31-8.89-23.48,5.23-14.15,14.14Z"/></g></g></svg>