<svg xmlns="http://www.w3.org/2000/svg" viewBox="0 0 674.83 304.87"><defs><style>.cls-1{fill:#d8d8d8;}</style></defs><title>linechart-placeholder-0</title><g id="Layer_2" data-name="Layer 2"><g id="Layer_1-2" data-name="Layer 1"><path class="cls-1" d="M10,301c17.55,2.16,33.18-9.74,46-20.21A198,198,0,0,0,84.76,251.5c17.95-22.35,32-47.31,44.89-72.82C154.79,129,176.84,73,220.16,35.86c11.11-9.52,26.67-18.93,41.9-15.22,13.46,3.28,22.55,14.9,29.47,26.16,9.31,15.14,16.72,31.54,24.76,47.36,9.09,17.9,18.11,35.83,27.28,53.68,7.19,14,15.53,28,28.7,37.17,14.35,10,32.77,10.56,48.89,4.82,16.89-6,30.41-17,44.41-27.81,11.73-9.08,25.25-19.11,40.61-20.15C540,139.58,564.6,169,580,195.29c9,15.4,16.65,31.55,26,46.75a248.33,248.33,0,0,0,33,42.56,240.7,240.7,0,0,0,18.82,17.45c4.15,3.46,10.09,4.06,14.15,0,3.56-3.56,4.16-10.66,0-14.14a229.39,229.39,0,0,1-36.16-37.54c-10.86-14.39-19.45-30.13-27.93-46-16.73-31.3-35.93-62.84-70.23-77-15.66-6.44-33.39-7.67-49.47-1.88-16.42,5.93-29.78,17-43.38,27.56-12.17,9.48-26.8,19.88-42.83,20.49-15.38.58-25.77-9.74-33.4-22-9.72-15.61-17.3-32.74-25.62-49.12C334,84.83,325.15,67.1,316,49.55c-7-13.43-15.2-27.22-27.09-36.91-13.53-11-30.37-15.3-47.46-11-30.74,7.79-54.21,36.57-71.69,61.38-16.63,23.61-29.68,49.48-42.42,75.32C103.26,187.24,78.93,242.61,32,274c-6.79,4.54-13.63,8.07-22,7-5.37-.66-10,5.07-10,10,0,5.95,4.62,9.34,10,10Z"/></g></g></svg>