<svg xmlns="http://www.w3.org/2000/svg" width="1939.387" height="3696.678" viewBox="0 0 1939.387 3696.678">
  <path id="Path_1" data-name="Path 1" d="M628.129,1144.917C624.39,976.062,819.824,909.632,782.535,698.5S610.01,369.735,563.005,215.329,533.229-.7,533.229-.7H0L-1.4,1081.833s30.75,382.276,239.266,657.8,629.218,233.5,804,299.042,294.154,224.743,327.718,307.235,61.328,307.866,13.176,472.308-178.617,269.9-284.366,485.148-93.4,392.611-93.4,392.611h932.995V2318.987s-135.749-438.747-441-660S925.969,1447.366,821.718,1409.93,631.868,1313.773,628.129,1144.917Z" transform="translate(1.398 0.699)" fill="#c5d2fe"/>
</svg>
