<svg xmlns="http://www.w3.org/2000/svg" viewBox="0 0 898.27 860.61"><defs><style>.cls-1{fill:#cce5e4;}.cls-2{fill:#fff;}.cls-3{fill:#b78686;}.cls-4{fill:#e0a9a9;}</style></defs><title>placeholder_1</title><g id="Layer_2" data-name="Layer 2"><g id="Layer_1-2" data-name="Layer 1"><path class="cls-1" d="M647.73,8C556.48,6.89,464.4,5.81,375,23.91S197.67,81,136.5,148.74c-38.86,43-65.4,95.68-87.86,149.12C14.54,379-11.53,468,5.2,554.44,10.26,580.56,19.3,606.15,34,628.3c16.49,24.76,39.53,44.44,63.51,62.05C235.68,791.78,413.17,832.74,584,819.53c46.88-3.62,94.14-11.32,136.8-31.07C827.41,739.11,888.74,619.75,897.07,502.6S869,269.76,824.58,161c-15.76-38.61-33-77.47-60.63-108.73S696.5-2,654.85.13"/><path class="cls-2" d="M208.34,454.28c75.77-75.3,192.8-87.94,285.24-141.48,5.74-3.32,11.65-6.89,18.26-7.43,5.47-.45,10.87,1.23,16.05,3,32.91,11.33,63.9,27.49,94.76,43.58L768.3,428c-23.38,21.65-55.76,29.8-86.06,39.65a606.07,606.07,0,0,0-180.4,94.75C486.61,574,470.3,587,451.14,587.12c-9.94.06-19.51-3.43-28.83-6.86-80.26-29.62-162.89-60.67-225.08-119.42"/><path class="cls-2" d="M507.77,301a475.11,475.11,0,0,0-78-135.29c-3.65-4.44-7.74-9.05-13.31-10.51s-11.25.52-16.59,2.47c-79.2,28.94-156.24,63.43-233.21,97.89-30.2,13.52-61.17,27.56-84.33,51.2q58.91,71.11,112,146.75"/><path class="cls-2" d="M191.9,474.68A1222.69,1222.69,0,0,1,52.48,574.76l252,134.88c4.28,2.3,9,4.67,13.79,3.66,3.82-.8,6.84-3.64,9.64-6.36L448.25,590.12"/><path class="cls-2" d="M773.81,428.5A1331.71,1331.71,0,0,1,838.65,581q-147.14,76.29-299.54,141.8A457.8,457.8,0,0,0,456,589.8"/><path class="cls-2" d="M447.43,595q3.38,131.67,11.07,263.18A2740.26,2740.26,0,0,0,750.88,698c4.82-3,9.73-6.17,13.26-10.65,13.92-17.64,0-44.07,5.81-65.77"/><path class="cls-2" d="M450.49,857.09C379.57,792.36,283.11,765.34,198,720.9c-3.63-1.9-7.4-4-9.7-7.36-2.79-4.1-2.94-9.39-3-14.36q-.24-22.48-.49-45"/><path class="cls-2" d="M458.33,859.15c-23.27-32.1-61.31-49.28-97-66.53q-63-30.42-123-66.53c-3.21-1.93-6.49-3.94-8.76-6.92-2.82-3.7-3.77-8.46-4.64-13-5.63-29.66-11.26-59.31-16.66-89-9.24-50.9-17.8-103.19-8.46-154.06,35.56,28.56,71.31,57.24,110.79,80.08s83.19,39.77,128.7,42.86c2.46.17,5.32.53,6.56,2.66a7.43,7.43,0,0,1,.76,3.21,2180.64,2180.64,0,0,1,6.81,224c-.21,9.84-.38,20.14,4,28.92C459.52,849,462,855,458,857.17"/><path class="cls-2" d="M515.47,303.12A613.41,613.41,0,0,1,570.3,126.56L828.56,244.18a405.31,405.31,0,0,0-57.2,177.19"/><path class="cls-3" d="M512,306.36a1870.22,1870.22,0,0,0,13.52,197.87c.49,4,1,8.14-.12,12-1.72,6.09-7,10.45-12.36,13.86-19.65,12.55-43,17.59-65.31,24.25-37.09,11.06-72.49,27-107.76,43-37.49,16.94-76,34.61-104.21,64.58L205.36,470.4c-.86-5.41-1.71-11-.11-16.29,1.71-5.63,6-10.06,10.36-14,29.78-27.11,67.82-42.86,103.58-61.37C376.64,349,431.8,310.31,495.81,300.9c4-.59,8.35-1,12,.75"/><path class="cls-3" d="M525.48,308.39a739.1,739.1,0,0,0-8.05,200.72c.35,3.57.82,7.37,3.17,10.08,1.84,2.12,4.55,3.23,7.16,4.27l193,76.63c13.18-28.33,13.19-60.77,13-92L733,419.44c0-3.45-.07-7-1.46-10.19-1.57-3.57-4.67-6.23-7.86-8.47-14.05-9.86-31.21-13.9-47.56-19.12a308.41,308.41,0,0,1-84.6-42.25c-19.67-14-39.74-31-63.85-31.29"/><path class="cls-4" d="M208.11,472.8A891.39,891.39,0,0,1,203.8,571c-4.53,45.48-12.56,90.68-13.74,136.37-.08,3.19-.09,6.55,1.44,9.34,1.67,3,4.85,4.88,7.94,6.44C210.81,728.87,223,732.86,235,737a1693,1693,0,0,1,206.14,85.67c7.95-17.49,2.29-37.72-.4-56.74-5.32-37.7,1.72-76.53-5.33-113.95-2.55-13.55-6.93-26.79-8.08-40.54-.93-11.3.18-23.4-5.47-33.24-5.15-9-15.07-14.24-25-17s-20.43-3.56-30.45-6.17c-13.68-3.55-26.23-10.41-38.62-17.21l-40.85-22.39c-11.3-6.2-22.66-12.43-32.69-20.51-14.14-11.39-26.34-26.8-43.94-31.24l-2.24,5.1"/><path class="cls-4" d="M502.32,293.22A1315,1315,0,0,1,565.4,131.54c.75-1.61,1.61-3.33,3.19-4.15,2.13-1.11,4.72-.17,6.9.84,16.5,7.67,30.76,19.35,46.28,28.85,16.62,10.18,34.64,17.83,52.58,25.45L798.06,235c-17.43,14.21-26.56,36-34.21,57.15-13.6,37.57-24.76,77-22.66,116.88-18.41-19.73-43.34-32.12-68.6-41.62s-51.47-16.57-76-27.88c-9.58-4.41-18.85-9.46-28.11-14.5l-61.62-33.52"/><path class="cls-4" d="M214,477.07A1127.79,1127.79,0,0,0,72.48,586.77q70.7,40.2,144.05,75.46c30.85,14.82,62.25,29.1,90,49.12,2.3,1.66,4.74,3.41,7.57,3.59,2.46.15,4.82-.93,7-2.06,50.53-25.81,78.89-82.27,127.43-111.65,3.28-2,7.15-4.89,6.36-8.64-.72-3.38-4.73-4.72-8.11-5.39-40-7.94-82.33-7.36-119.74-23.68a67.32,67.32,0,0,1-16.75-9.83c-5.08-4.27-9.12-9.61-13.55-14.55-10.71-11.93-23.75-21.49-36.69-31l-46.82-34.29"/><path class="cls-4" d="M455.85,587.87c6.67,14.59,7.26,31.12,7.86,47.15q4,106.77,14.63,213.14a6.65,6.65,0,0,0,.91,3.24c2.31,3.27,7.31.25,10.12-2.6,28.9-29.35,74-33.74,111.33-51.15,40.07-18.69,71-52.45,108.49-75.87,16.47-10.28,34.3-18.63,49-31.28,4.15-3.56,8.16-7.67,9.79-12.89,1.2-3.85,1-8,.79-12q-4.57-84.83-13.72-169.3c-2.14-19.85-3.8-42.12,8.91-57.5-4.43-2.72-9.63,1.75-13.26,5.49-20.29,20.9-50.16,28.54-77.93,37.36-44.65,14.19-87.45,33.56-130.12,52.89-30.1,13.63-61.49,28.26-81.42,54.61"/><path class="cls-4" d="M814,581.49c-17.82-45.52-40.89-88.77-63.9-131.9a3.08,3.08,0,0,0-4.64-1.78L596.36,498.49a5.14,5.14,0,0,1-1.78,2.12c-41.33,29.17-85.21,54.9-123.58,88.07a5.18,5.18,0,0,1-7.3-.5l-3.22-.09A581.51,581.51,0,0,1,549.2,708c.95,1.73,2,3.57,3.85,4.33a8.64,8.64,0,0,0,5,0c71.75-13.62,134.4-55.69,202.11-83.07,19.16-7.74,39.83-15.06,52.67-31.26a15.62,15.62,0,0,0,2.9-5C816.89,589.3,815.45,585.21,814,581.49Z"/><path class="cls-4" d="M104.76,293.12c95.9-56.81,208.4-81.6,302.8-140.87,3.67-2.3,8-4.74,12.08-3.18,2.52,1,4.22,3.31,5.74,5.55,32.23,47.32,49.72,103.69,83.7,149.77-7.36,10.88-20.5,16-32.83,20.53-25.76,9.43-51.54,18.87-77.89,26.46-17.08,4.93-34.39,9.07-51.41,14.18a470.93,470.93,0,0,0-127.68,60.51c-2,1.36-4.6,2.79-6.75,1.64a6.63,6.63,0,0,1-2.12-2.16l-35.94-49.71c-7.26-10-14.57-20.16-23.45-28.81-18.24-17.8-43.19-29.72-55-52.29"/><path class="cls-3" d="M516.64,522.51l23,10.36q-36.56,28.18-74.46,54.56c-2.4,1.68-4.94,3.39-7.85,3.72-2.73.31-5.43-.64-8-1.6q-17.46-6.43-34.68-13.52a270.68,270.68,0,0,1,55.09-33.63c14.12-6.45,28.9-11.74,41.85-20.29"/><path d="M213.11,456.05c52.69-52,125.12-74.21,192.73-99.64,16.65-6.26,33.21-12.76,49.46-20,8.45-3.75,16.8-7.7,25-11.92s15.92-9.05,24.07-13.2c5.43-2.77,11-4.17,17-3,5.46,1,10.78,3.18,16,5.09,11.07,4.07,21.94,8.67,32.66,13.59,20.21,9.27,39.9,19.65,59.61,29.94L770,430.12l-.51-3.93c-15.14,13.78-33.93,22.1-53.08,28.72-19.46,6.73-39.25,12.37-58.52,19.65A609.55,609.55,0,0,0,544,531.82c-17.65,11.34-34.13,24.09-51.07,36.41-8.19,6-16.95,11.69-26.76,14.55-11.31,3.28-22.25,1.32-33.17-2.4A1136.13,1136.13,0,0,1,317.11,534c-41.63-19.52-81.48-43.34-115.11-74.95-2.35-2.21-5.89,1.32-3.54,3.53,61.21,57.52,140.78,88.47,218.31,117.15,10.34,3.82,20.77,8.32,31.82,9.54,9.93,1.1,19.59-1.19,28.55-5.44,9.54-4.51,18-11,26.34-17.33,8.59-6.57,17.28-13,26.17-19.13a603.45,603.45,0,0,1,117.28-63.2c22.22-9,45.07-15.77,67.75-23.41,21.06-7.1,41.76-15.93,58.39-31.06a2.52,2.52,0,0,0-.51-3.93L644.46,359c-20.44-10.67-40.8-21.53-61.59-31.51-10.17-4.88-20.46-9.52-30.91-13.79-10-4.08-20.87-9.28-31.68-10.62-9.91-1.22-18,3.62-26.29,8.36-8,4.58-16.16,8.86-24.44,12.9-16.95,8.26-34.39,15.49-52,22.3C382.74,360.1,347.25,372,312.93,386.78c-37.71,16.3-73.93,36.68-103.35,65.74-2.3,2.26,1.24,5.8,3.53,3.53Z"/><path d="M513.18,300.31a482.1,482.1,0,0,0-47-93.25,474.35,474.35,0,0,0-30.51-41.78c-4.58-5.61-9.64-11.58-17.18-12.84-8-1.35-16.25,2.77-23.57,5.48-72.3,26.77-142.83,58-213.18,89.49-34.58,15.48-71,30.2-98.16,57.56a2.58,2.58,0,0,0,0,3.54q58.68,70.89,111.64,146.24c1.83,2.62,6.17.12,4.31-2.52Q146.24,376.42,87.11,305v3.54c23-23.17,52.91-37,82.29-50.13,33.37-14.95,66.75-29.89,100.31-44.4,34-14.71,68.27-29,102.87-42.3q13.17-5.07,26.4-10c8.5-3.13,17.7-7.43,25.72-.92,6.6,5.37,11.74,13.24,16.86,20q7.47,9.81,14.43,20a475.59,475.59,0,0,1,52.36,100.86c1.13,3,6,1.69,4.83-1.33Z"/><path d="M515.89,303.79a616.31,616.31,0,0,1,54.57-176l-3.42.9,201,91.52,57.29,26.1-.9-3.43a411,411,0,0,0-57.54,178.46c-.27,3.21,4.74,3.19,5,0a405.3,405.3,0,0,1,56.86-175.93,2.52,2.52,0,0,0-.9-3.42l-201-91.53L569.56,124.4a2.53,2.53,0,0,0-3.42.9,620.6,620.6,0,0,0-55.08,177.16c-.48,3.15,4.34,4.5,4.83,1.33Z"/><path d="M193.13,472.91A1229.72,1229.72,0,0,1,54.22,572.6a2.52,2.52,0,0,0,0,4.31l170.91,91.5,42.28,22.64c13.95,7.47,27.72,15.75,42.06,22.43,5,2.36,10.52,3.63,15.74,1,5.64-2.81,10.16-8.45,14.6-12.76l34.39-33.37L453,591.89c2.31-2.24-1.23-5.78-3.54-3.53l-67.35,65.35-33,32L333.4,701a102.49,102.49,0,0,1-7.57,7.17c-4.42,3.47-8.86,3.23-13.84,1-13.79-6.21-27-14.36-40.29-21.49L231.17,666l-82.81-44.33-91.62-49v4.31A1239.45,1239.45,0,0,0,196.67,476.45c2.48-2.06-1.08-5.58-3.54-3.54Z"/><path d="M774.65,429.76a1339.82,1339.82,0,0,1,64.59,151.88l1.15-2.83Q725.93,638.12,608.29,691q-33.6,15.07-67.44,29.63l3.67,1.49A465.51,465.51,0,0,0,460.79,588c-2.14-2.4-5.67,1.15-3.53,3.54A458.62,458.62,0,0,1,539.7,723.43a2.57,2.57,0,0,0,3.67,1.5Q661.8,674,777.24,616.51q33-16.43,65.67-33.38a2.52,2.52,0,0,0,1.15-2.82A1350.15,1350.15,0,0,0,779,427.24c-1.44-2.88-5.76-.35-4.32,2.52Z"/><path d="M447.93,595q2.64,102.24,7.85,204.39,1.5,29.4,3.22,58.79a2.53,2.53,0,0,0,3.76,2.15q78.43-37,154.45-78.83,37.75-20.82,74.86-42.81,18.75-11.11,37.32-22.53c11.33-7,23.64-13.42,34-21.72,22.9-18.29,6-48.32,11.93-72.21.77-3.13-4.05-4.46-4.82-1.33-2.83,11.35-1.08,22.83,0,34.3s1.4,24.12-7.4,32.9c-4.41,4.39-10.06,7.47-15.3,10.75q-9.63,6-19.32,12-17.76,10.93-35.68,21.59-72.48,43.11-147.54,81.71-42.15,21.66-85,41.87l3.76,2.16q-6-102.1-9.34-204.33-1-29.42-1.73-58.85c-.08-3.21-5.08-3.22-5,0Z"/><path d="M455.26,855.33C387.66,794,298.9,766.48,218.43,726.92c-5.88-2.89-11.8-5.76-17.54-8.91-7.36-4-9.82-8.88-10.07-17.16-.47-15.53-.35-31.1-.52-46.64,0-3.21-5-3.22-5,0q.24,21,.46,42c.06,5.2-.18,10.76,1.87,15.66s6.16,7.93,10.74,10.42c20.25,11,41.51,20.43,62.58,29.8,42.69,19,86.06,36.85,126.51,60.4,22.88,13.33,44.64,28.52,64.26,46.33,2.38,2.16,5.93-1.37,3.54-3.53Z"/><path d="M513.88,311.1c-3.69,33.83-2.66,67.87-1.13,101.79Q513.89,438,515.09,463c.78,16.77.51,34,2.43,50.68a12.69,12.69,0,0,0,8.31,11.07c5.38,2.22,12.18,2,16.29,6.57,2.16,2.39,5.69-1.15,3.54-3.54-4-4.47-9.85-5.2-15.34-6.78-4.51-1.3-7.3-3.12-7.89-8.15s-.5-10.33-.74-15.44l-2.89-61.94c-1.93-41.42-4.43-83,.08-124.37.35-3.2-4.65-3.17-5,0Z"/><path d="M514.58,518a955.56,955.56,0,0,1-100.91,51.5c-2.94,1.29-.4,5.6,2.52,4.32a958.59,958.59,0,0,0,100.92-51.5c2.77-1.63.26-6-2.53-4.32Z"/></g></g></svg>