<svg xmlns="http://www.w3.org/2000/svg" viewBox="0 0 853 145"><defs><style>.cls-1{fill:#828282;}.cls-2{fill:#f78259;}.cls-3{fill:#f7b801;}.cls-4{fill:#aeefec;}.cls-5{fill:#ebcd86;}.cls-6{fill:#eb4559;}.cls-7{fill:#66e4d7;}</style></defs><title>placeholder_calendar</title><g id="Layer_2" data-name="Layer 2"><g id="Layer_1-2" data-name="Layer 1"><rect class="cls-1" x="53" width="20" height="20"/><rect class="cls-1" x="79" width="20" height="20"/><rect class="cls-1" x="105" width="20" height="20"/><rect class="cls-1" x="131" width="20" height="20"/><rect class="cls-1" x="157" width="20" height="20"/><rect class="cls-1" x="183" width="20" height="20"/><rect class="cls-1" x="209" width="20" height="20"/><rect class="cls-1" x="235" width="20" height="20"/><rect class="cls-1" x="261" width="20" height="20"/><rect class="cls-1" x="287" width="20" height="20"/><rect class="cls-1" x="313" width="20" height="20"/><rect class="cls-1" x="339" width="20" height="20"/><rect class="cls-1" x="365" width="20" height="20"/><rect class="cls-1" x="391" width="20" height="20"/><rect class="cls-1" x="417" width="20" height="20"/><rect class="cls-1" x="443" width="20" height="20"/><rect class="cls-1" x="469" width="20" height="20"/><rect class="cls-2" x="495" width="20" height="20"/><rect class="cls-3" x="521" width="20" height="20"/><rect class="cls-1" x="547" width="20" height="20"/><rect class="cls-1" x="573" width="20" height="20"/><rect class="cls-1" x="599" width="20" height="20"/><rect class="cls-1" x="625" width="20" height="20"/><rect class="cls-1" x="651" width="20" height="20"/><rect class="cls-1" x="677" width="20" height="20"/><rect class="cls-1" x="703" width="20" height="20"/><rect class="cls-1" x="729" width="20" height="20"/><rect class="cls-1" x="755" width="20" height="20"/><rect class="cls-4" x="781" width="20" height="20"/><rect class="cls-1" x="807" width="20" height="20"/><rect class="cls-1" x="833" width="20" height="20"/><rect class="cls-1" x="53" y="25" width="20" height="20"/><rect class="cls-1" x="79" y="25" width="20" height="20"/><rect class="cls-1" x="105" y="25" width="20" height="20"/><rect class="cls-1" x="131" y="25" width="20" height="20"/><rect class="cls-5" x="157" y="25" width="20" height="20"/><rect class="cls-1" x="183" y="25" width="20" height="20"/><rect class="cls-1" x="209" y="25" width="20" height="20"/><rect class="cls-6" x="235" y="25" width="20" height="20"/><rect class="cls-1" x="261" y="25" width="20" height="20"/><rect class="cls-5" x="287" y="25" width="20" height="20"/><rect class="cls-1" x="313" y="25" width="20" height="20"/><rect class="cls-1" x="339" y="25" width="20" height="20"/><rect class="cls-1" x="365" y="25" width="20" height="20"/><rect class="cls-1" x="391" y="25" width="20" height="20"/><rect class="cls-4" x="417" y="25" width="20" height="20"/><rect class="cls-1" x="443" y="25" width="20" height="20"/><rect class="cls-1" x="469" y="25" width="20" height="20"/><rect class="cls-2" x="495" y="25" width="20" height="20"/><rect class="cls-3" x="521" y="25" width="20" height="20"/><rect class="cls-1" x="547" y="25" width="20" height="20"/><rect class="cls-4" x="573" y="25" width="20" height="20"/><rect class="cls-1" x="599" y="25" width="20" height="20"/><rect class="cls-1" x="625" y="25" width="20" height="20"/><rect class="cls-1" x="651" y="25" width="20" height="20"/><rect class="cls-1" x="677" y="25" width="20" height="20"/><rect class="cls-1" x="703" y="25" width="20" height="20"/><rect class="cls-1" x="729" y="25" width="20" height="20"/><rect class="cls-1" x="755" y="25" width="20" height="20"/><rect class="cls-5" x="781" y="25" width="20" height="20"/><rect class="cls-1" x="807" y="25" width="20" height="20"/><rect class="cls-1" x="833" y="25" width="20" height="20"/><rect class="cls-4" x="53" y="50" width="20" height="20"/><rect class="cls-1" x="79" y="50" width="20" height="20"/><rect class="cls-1" x="105" y="50" width="20" height="20"/><rect class="cls-2" x="131" y="50" width="20" height="20"/><rect class="cls-7" x="157" y="50" width="20" height="20"/><rect class="cls-1" x="183" y="50" width="20" height="20"/><rect class="cls-1" x="209" y="50" width="20" height="20"/><rect class="cls-1" x="235" y="50" width="20" height="20"/><rect class="cls-4" x="261" y="50" width="20" height="20"/><rect class="cls-1" x="287" y="50" width="20" height="20"/><rect class="cls-1" x="313" y="50" width="20" height="20"/><rect class="cls-2" x="339" y="50" width="20" height="20"/><rect class="cls-1" x="365" y="50" width="20" height="20"/><rect class="cls-1" x="391" y="50" width="20" height="20"/><rect class="cls-4" x="417" y="50" width="20" height="20"/><rect class="cls-1" x="443" y="50" width="20" height="20"/><rect class="cls-1" x="469" y="50" width="20" height="20"/><rect class="cls-2" x="495" y="50" width="20" height="20"/><rect class="cls-3" x="521" y="50" width="20" height="20"/><rect class="cls-4" x="547" y="50" width="20" height="20"/><rect class="cls-1" x="573" y="50" width="20" height="20"/><rect class="cls-3" x="599" y="50" width="20" height="20"/><rect class="cls-1" x="625" y="50" width="20" height="20"/><rect class="cls-1" x="651" y="50" width="20" height="20"/><rect class="cls-6" x="677" y="50" width="20" height="20"/><rect class="cls-1" x="703" y="50" width="20" height="20"/><rect class="cls-1" x="729" y="50" width="20" height="20"/><rect class="cls-1" x="755" y="50" width="20" height="20"/><rect class="cls-1" x="781" y="50" width="20" height="20"/><rect class="cls-1" x="807" y="50" width="20" height="20"/><rect class="cls-1" x="833" y="50" width="20" height="20"/><rect class="cls-1" x="53" y="75" width="20" height="20"/><rect class="cls-5" x="79" y="75" width="20" height="20"/><rect class="cls-1" x="105" y="75" width="20" height="20"/><rect class="cls-1" x="131" y="75" width="20" height="20"/><rect class="cls-1" x="157" y="75" width="20" height="20"/><rect class="cls-1" x="183" y="75" width="20" height="20"/><rect class="cls-4" x="209" y="75" width="20" height="20"/><rect class="cls-1" x="235" y="75" width="20" height="20"/><rect class="cls-7" x="261" y="75" width="20" height="20"/><rect class="cls-5" x="287" y="75" width="20" height="20"/><rect class="cls-1" x="313" y="75" width="20" height="20"/><rect class="cls-7" x="339" y="75" width="20" height="20"/><rect class="cls-1" x="365" y="75" width="20" height="20"/><rect class="cls-1" x="391" y="75" width="20" height="20"/><rect class="cls-4" x="417" y="75" width="20" height="20"/><rect class="cls-2" x="443" y="75" width="20" height="20"/><rect class="cls-1" x="469" y="75" width="20" height="20"/><rect class="cls-3" x="495" y="75" width="20" height="20"/><rect class="cls-2" x="521" y="75" width="20" height="20"/><rect class="cls-5" x="547" y="75" width="20" height="20"/><rect class="cls-5" x="573" y="75" width="20" height="20"/><rect class="cls-1" x="599" y="75" width="20" height="20"/><rect class="cls-1" x="625" y="75" width="20" height="20"/><rect class="cls-4" x="651" y="75" width="20" height="20"/><rect class="cls-5" x="677" y="75" width="20" height="20"/><rect class="cls-4" x="703" y="75" width="20" height="20"/><rect class="cls-1" x="729" y="75" width="20" height="20"/><rect class="cls-6" x="755" y="75" width="20" height="20"/><rect class="cls-5" x="781" y="75" width="20" height="20"/><rect class="cls-1" x="807" y="75" width="20" height="20"/><rect class="cls-6" x="833" y="75" width="20" height="20"/><rect class="cls-1" x="53" y="100" width="20" height="20"/><rect class="cls-4" x="79" y="100" width="20" height="20"/><rect class="cls-1" x="105" y="100" width="20" height="20"/><rect class="cls-1" x="131" y="100" width="20" height="20"/><rect class="cls-1" x="157" y="100" width="20" height="20"/><rect class="cls-1" x="183" y="100" width="20" height="20"/><rect class="cls-1" x="209" y="100" width="20" height="20"/><rect class="cls-1" x="235" y="100" width="20" height="20"/><rect class="cls-2" x="261" y="100" width="20" height="20"/><rect class="cls-1" x="287" y="100" width="20" height="20"/><rect class="cls-1" x="313" y="100" width="20" height="20"/><rect class="cls-4" x="339" y="100" width="20" height="20"/><rect class="cls-1" x="365" y="100" width="20" height="20"/><rect class="cls-1" x="391" y="100" width="20" height="20"/><rect class="cls-1" x="417" y="100" width="20" height="20"/><rect class="cls-1" x="443" y="100" width="20" height="20"/><rect class="cls-1" x="469" y="100" width="20" height="20"/><rect class="cls-3" x="495" y="100" width="20" height="20"/><rect class="cls-6" x="521" y="100" width="20" height="20"/><rect class="cls-7" x="547" y="100" width="20" height="20"/><rect class="cls-1" x="573" y="100" width="20" height="20"/><rect class="cls-1" x="599" y="100" width="20" height="20"/><rect class="cls-1" x="625" y="100" width="20" height="20"/><rect class="cls-1" x="651" y="100" width="20" height="20"/><rect class="cls-1" x="677" y="100" width="20" height="20"/><rect class="cls-1" x="703" y="100" width="20" height="20"/><rect class="cls-1" x="729" y="100" width="20" height="20"/><rect class="cls-1" x="755" y="100" width="20" height="20"/><rect class="cls-1" x="781" y="100" width="20" height="20"/><rect class="cls-1" x="807" y="100" width="20" height="20"/><rect class="cls-1" x="833" y="100" width="20" height="20"/><rect class="cls-5" x="53" y="125" width="20" height="20"/><rect class="cls-1" x="79" y="125" width="20" height="20"/><rect class="cls-1" x="105" y="125" width="20" height="20"/><rect class="cls-1" x="131" y="125" width="20" height="20"/><rect class="cls-4" x="157" y="125" width="20" height="20"/><rect class="cls-1" x="183" y="125" width="20" height="20"/><rect class="cls-1" x="209" y="125" width="20" height="20"/><rect class="cls-1" x="235" y="125" width="20" height="20"/><rect class="cls-7" x="261" y="125" width="20" height="20"/><rect class="cls-1" x="287" y="125" width="20" height="20"/><rect class="cls-1" x="313" y="125" width="20" height="20"/><rect class="cls-1" x="339" y="125" width="20" height="20"/><rect class="cls-1" x="365" y="125" width="20" height="20"/><rect class="cls-1" x="391" y="125" width="20" height="20"/><rect class="cls-1" x="417" y="125" width="20" height="20"/><rect class="cls-1" x="443" y="125" width="20" height="20"/><rect class="cls-1" x="469" y="125" width="20" height="20"/><rect class="cls-3" x="495" y="125" width="20" height="20"/><rect class="cls-6" x="521" y="125" width="20" height="20"/><rect class="cls-1" x="547" y="125" width="20" height="20"/><rect class="cls-1" x="573" y="125" width="20" height="20"/><rect class="cls-5" x="599" y="125" width="20" height="20"/><rect class="cls-1" x="625" y="125" width="20" height="20"/><rect class="cls-1" x="651" y="125" width="20" height="20"/><rect class="cls-1" x="677" y="125" width="20" height="20"/><rect class="cls-4" x="703" y="125" width="20" height="20"/><rect class="cls-1" x="729" y="125" width="20" height="20"/><rect class="cls-1" x="755" y="125" width="20" height="20"/><rect class="cls-1" x="781" y="125" width="20" height="20"/><rect class="cls-1" x="807" y="125" width="20" height="20"/><rect class="cls-6" x="833" y="125" width="20" height="20"/><rect class="cls-1" width="20" height="20"/><rect class="cls-1" x="26" width="20" height="20"/><rect class="cls-3" y="25" width="20" height="20"/><rect class="cls-1" x="26" y="25" width="20" height="20"/><rect class="cls-1" y="50" width="20" height="20"/><rect class="cls-1" x="26" y="50" width="20" height="20"/><rect class="cls-1" y="75" width="20" height="20"/><rect class="cls-1" x="26" y="75" width="20" height="20"/><rect class="cls-3" y="100" width="20" height="20"/><rect class="cls-1" x="26" y="100" width="20" height="20"/><rect class="cls-1" y="125" width="20" height="20"/><rect class="cls-1" x="26" y="125" width="20" height="20"/></g></g></svg>