<svg xmlns="http://www.w3.org/2000/svg" viewBox="0 0 645 288"><defs><style>.cls-1{fill:none;stroke:#999;stroke-miterlimit:10;stroke-width:10px;}</style></defs><title>placeholder_line_1</title><g id="Layer_2" data-name="Layer 2"><g id="Layer_1-2" data-name="Layer 1"><path class="cls-1" d="M530.92,116.4c24.89,28.49,46.4,53.44,76.43,60.73"/><path class="cls-1" d="M441.9,27.42c17,9.33,37,30.69,67.13,64.32"/><path class="cls-1" d="M336.27,92c32.9-38.14,54.39-60.81,74-67.74"/><path class="cls-1" d="M258.64,188.33c18.75-20.17,23.42-32.22,56.2-71.24"/><path class="cls-1" d="M135.92,264.7c42.65-8.51,76.77-33.66,99.07-53.44"/><path class="cls-1" d="M30.27,190.47c28.31,48.41,52.88,67.76,72.73,74"/><circle class="cls-1" cx="623.5" cy="180.5" r="16.5"/><circle class="cls-1" cx="519.5" cy="104.5" r="16.5"/><circle class="cls-1" cx="426.5" cy="21.5" r="16.5"/><circle class="cls-1" cx="325.5" cy="104.5" r="16.5"/><circle class="cls-1" cx="247.5" cy="200.5" r="16.5"/><circle class="cls-1" cx="119.5" cy="266.5" r="16.5"/><circle class="cls-1" cx="21.5" cy="176.5" r="16.5"/></g></g></svg>