<svg xmlns="http://www.w3.org/2000/svg" viewBox="0 0 372.91 372.89"><defs><style>.cls-1{fill:#f7b801;}.cls-2{fill:#f78259;}.cls-3{fill:#66e4d7;}</style></defs><title>placeholder_pie_2</title><g id="Layer_2" data-name="Layer 2"><g id="Layer_1-2" data-name="Layer 1"><path class="cls-1" d="M192.41,100.11a86.45,86.45,0,0,1,59.93,142.22l70.84,70.84a185.81,185.81,0,0,0,49.73-126.78c0-101-80.27-183.22-180.5-186.39Z"/><path class="cls-2" d="M100.16,179.89a86.62,86.62,0,0,1,80.25-79.78V0C82.35,3.1,3.4,81.9,0,179.89Z"/><path class="cls-3" d="M244,250.92a86.45,86.45,0,0,1-143.86-59H0c2.91,100.46,85.25,181,186.41,181a185.87,185.87,0,0,0,128.34-51.18Z"/></g></g></svg>