<svg xmlns="http://www.w3.org/2000/svg" viewBox="0 0 685.7 322.5">
  <!-- <link href="/assets/placeholder_tumble.css" rel="stylesheet"> -->
  <defs>
    <style>
      .cls-1 {
        fill: none;
        stroke: #f9e1a5;
        stroke-linecap: round;
        stroke-miterlimit: 10;
        stroke-width: 89px;
      }

      .cls-2 {
        fill: #98a88e;
      }

      .cls-3 {
        fill: #e8b685;
      }

      .cls-4 {
        fill: #d8a577;
      }

      .cls-5 {
        fill: #c69c6d;
      }

      .cls-6 {
        fill: #aad392;
      }

      svg {
        --animation-duration: 8s;
        --animation-count: 10;
        margin-top: 30px;
        filter: grayscale(100%);
        opacity: 0.5;
      }
      
      #tumbleweed-1 {
        animation: roll var(--animation-duration) linear;
        transform-origin: center;
        transform-box: fill-box;
        animation-iteration-count: var(--animation-count);
      }
      
      #tumbleweed-2 {
        animation: roll-reverse var(--animation-duration) linear;
        transform-origin: center;
        transform-box: fill-box;
        animation-iteration-count: var(--animation-count);
      }
      
      @keyframes roll {
        0% {
          opacity: 0;
        }
        5% {
          transform: translateX(0%) rotateZ(0deg);
          opacity: 0;
        }
        10% {
          opacity: 1;
        }
        45% {
          opacity: 1;
        }
        50% {
          transform: translateX(1000%) rotateZ(360deg);
          opacity: 0;
        }
        95% {
          opacity: 0;
        }
        100% {
          transform: translateX(1000%) rotateZ(360deg);
          opacity: 0;
        }
      }
      
      @keyframes roll-reverse {
        0% {
          transform: translateX(0%) rotateZ(360deg);
          opacity: 0;
        }
        40% {
          opacity: 0;
        }
        50% {
          opacity: 0;
        }
        60% {
          transform: translateX(0%) rotateZ(360deg);
          opacity: 0;
        }
        65% {
          opacity: 1;
        }
        90% {
          opacity: 1;
        }
        95% {
          transform: translateX(-500%) rotateZ(0deg);
          opacity: 0;
        }
        100% {
          /* transform: translateX(-500%) rotateZ(0deg); */
          opacity: 0;
        }
      }
    </style>
  </defs>
  <title>placeholder_tumble</title>
  <g id="Layer_2" data-name="Layer 2">
    <g id="Layer_1-2" data-name="Layer 1">
      <line class="cls-1" x1="47.24" y1="232.7" x2="492.12" y2="232.7" />
      <line class="cls-1" x1="220.25" y1="278" x2="634.24" y2="278" />
      <path class="cls-2"
        d="M162.23,107.93a6.07,6.07,0,0,0-5.67-4.67,5.81,5.81,0,0,0-4.86,2.8,7.51,7.51,0,0,0-.82,6c1.62,5.65,2.21,12.28-.12,14.34-1.33,1.17-3.92,1.45-6.25,1.62l-.28,0V105h0c0-.2,0-.39,0-.59a8.73,8.73,0,1,0-17.46,0,5.83,5.83,0,0,0,0,.59h0V149.3l-.42,0c-2.37-.17-5-.45-6.37-1.62-2.38-2.06-1.78-8.69-.12-14.34a7.4,7.4,0,0,0-.84-6,6,6,0,0,0-5-2.8,6.16,6.16,0,0,0-5.78,4.67,47.35,47.35,0,0,0-2,13.35c.06,8,3,12.58,5.4,15,3.76,3.8,8.69,4.72,12.08,5.09,1,.1,2,.18,3,.24v31c5.72.42,11.6-1.4,17.46-1.22v-51c1-.06,1.93-.14,2.86-.24,3.32-.37,8.16-1.29,11.85-5.09,2.38-2.45,5.23-7.05,5.29-15A48.29,48.29,0,0,0,162.23,107.93Z" />
  
      <g id="tumbleweed-1">
        <path class="cls-3"
          d="M34,162.37C20.27,168.88,15.08,183.49,11,197.06c-1.66,5.56,7,7.93,8.68,2.39,3.4-11.4,7.24-23.82,18.79-29.31,5.23-2.49.67-10.25-4.54-7.77Z" />
        <path class="cls-3"
          d="M22.5,162.26A20,20,0,0,0,19,174.82a4.61,4.61,0,0,0,4.5,4.5,4.55,4.55,0,0,0,4.5-4.5,12,12,0,0,1,2.25-8c1.38-2,.37-5-1.62-6.15a4.59,4.59,0,0,0-6.15,1.61Z" />
        <path class="cls-3"
          d="M29.73,157.8c-9.37-1.43-17,4-20.74,12.51-3.54,8.09-5.76,18.6-1.85,26.86,2.48,5.24,10.24.67,7.77-4.54-2.17-4.58-.24-10.91,1.13-15.48,1.47-4.9,5.11-11.62,11.3-10.68,5.66.87,8.11-7.8,2.39-8.67Z" />
        <path class="cls-3"
          d="M14.25,170.31a41.29,41.29,0,0,0-3.71,28.77c1.28,5.65,10,3.26,8.68-2.39A31.47,31.47,0,0,1,22,174.85c2.66-5.13-5.1-9.69-7.77-4.54Z" />
        <path class="cls-3"
          d="M31.68,175.65A14.35,14.35,0,0,0,43,174.53a4.5,4.5,0,1,0-4.55-7.77c-.65.35-.1.15-.78.34-.32.1-.65.18-1,.25.28,0,.26,0-.06,0s-1.25,0-1.17,0-1.05-.27-1.37-.37a4.5,4.5,0,1,0-2.4,8.67Z" />
        <path class="cls-3"
          d="M31.5,174.31c-2.93,8-10.21,12.72-17.59,16.13-5.26,2.43-.69,10.19,4.54,7.77,9.72-4.49,18-11.24,21.73-21.51,2-5.45-6.7-7.79-8.68-2.39Z" />
        <path class="cls-3"
          d="M24.29,177.5c.15,2-.24,4.05,0,6.09a9.32,9.32,0,0,0,2.7,5.64c4.19,4,10.57-2.36,6.37-6.37-.78-.74-.19-.27-.11-.08-.2-.52-.1-.36-.09-1.12,0-1.4.21-2.76.11-4.16a4.62,4.62,0,0,0-4.5-4.5c-2.3,0-4.69,2.07-4.5,4.5Z" />
        <path class="cls-3"
          d="M39.73,174.12C37.62,185,28.21,188.47,18.31,189.73c-5.67.72-5.74,9.73,0,9,13.74-1.75,27.16-7.11,30.1-22.21,1.1-5.66-7.57-8.08-8.68-2.4Z" />
        <path class="cls-3"
          d="M41.45,183.57A22.18,22.18,0,0,1,31,195.13a20.1,20.1,0,0,1-7.1,2.11c-3.92.36-6.16-1.75-8.25-4.86-3.21-4.79-11-.29-7.77,4.54,5.6,8.33,13.06,11.17,22.7,8.06a30.37,30.37,0,0,0,18.63-16.86c2.23-5.28-5.52-9.87-7.77-4.55Z" />
        <path class="cls-3"
          d="M30,188.33c-1,1.57-3.87,1.71-5.51,2.34-1.48.57-4,2.64-5.66,2.28-5.64-1.24-8,7.44-2.39,8.68,4.61,1,7.46-1.15,11.57-2.69s7.37-2.22,9.76-6.06c3.08-4.93-4.7-9.46-7.77-4.55Z" />
        <path class="cls-3"
          d="M10,164.31c-3.51,3.33-6.54,6.88-7.15,11.85A36.78,36.78,0,0,0,5,192.32c1.86,5.45,10.56,3.11,8.67-2.39a31.11,31.11,0,0,1-2-10.8c.08-4,1.94-5.85,4.69-8.45,4.21-4-2.16-10.35-6.36-6.37Z" />
        <path class="cls-3"
          d="M29.93,159a17.37,17.37,0,0,0-5.26,6c-1.06,2.11-.64,5,1.61,6.16,2,1.08,5,.63,6.16-1.61a12.66,12.66,0,0,1,.63-1.14c.1-.16.2-.32.31-.48s.11-.16.17-.23c.2-.27.11-.16-.26.34a7,7,0,0,0,.78-.85c.24-.24,1.44-1.21.4-.43A5,5,0,0,0,36.54,164a4.6,4.6,0,0,0-.46-3.46c-1.19-1.85-4.15-3.14-6.15-1.62Z" />
        <path class="cls-4"
          d="M19.08,176.57a3.12,3.12,0,0,0,2.53-1.52A1.5,1.5,0,0,0,19,173.54c-.09.15-.1.16,0,0l0,0c-.09,0-.08,0,.05,0-.18,0-.18,0,0,0a1.5,1.5,0,1,0,0,3Z" />
        <path class="cls-4"
          d="M21.23,175.69c-4.28,5.1-8.36,10.37-9,17.21-.18,1.92,2.82,1.91,3,0,.54-6,4.4-10.68,8.1-15.09,1.23-1.47-.88-3.6-2.12-2.12Z" />
        <path class="cls-4"
          d="M19,192a19.33,19.33,0,0,0,9.77-6.55c1.18-1.5-.93-3.64-2.12-2.12a16.64,16.64,0,0,1-8.45,5.78c-1.85.54-1.06,3.44.8,2.89Z" />
        <path class="cls-4"
          d="M32.11,174.81l.76,1.5a1.52,1.52,0,0,0,2.05.54,1.54,1.54,0,0,0,.54-2l-.76-1.51a1.5,1.5,0,1,0-2.59,1.52Z" />
        <path class="cls-4"
          d="M36.13,175.29c-3.71,5.63-7.8,15-15.29,16-1.88.25-1.91,3.26,0,3,9-1.2,13.37-10.62,17.88-17.47,1.06-1.61-1.53-3.12-2.59-1.51Z" />
        <path class="cls-4"
          d="M39.25,176c-1,2.7-1.7,5.75-3.09,8.26-1.56,2.79-4.38,3.93-7.24,5-1.8.66-1,3.56.79,2.89,3-1.1,6.12-2.31,8.11-4.92,2.22-2.92,3.11-7,4.32-10.41.65-1.82-2.25-2.61-2.89-.8Z" />
        <path class="cls-4" d="M34.77,185.23l-9.35,3.6c-1.78.69-1,3.59.8,2.9l9.35-3.6c1.79-.69,1-3.59-.8-2.9Z" />
        <path class="cls-4"
          d="M35.33,181.15c.12.1.23.19.34.3.28.27-.09-.16.12.17s0-.11.09.18a3.34,3.34,0,0,1,.1.43,1.51,1.51,0,0,0,1.84,1.05,1.52,1.52,0,0,0,1-1.84A3.93,3.93,0,0,0,37.45,179a1.56,1.56,0,0,0-2.12,0,1.51,1.51,0,0,0,0,2.12Z" />
        <path class="cls-4"
          d="M21.59,163.15c-8.11,5.39-10.93,14.45-11.33,23.79-.08,1.93,2.92,1.93,3,0,.35-8.22,2.65-16.42,9.84-21.2,1.6-1.06.1-3.66-1.51-2.59Z" />
        <path class="cls-4" d="M12.63,172.19l.65,2.79a1.5,1.5,0,0,0,2.9-.8l-.65-2.79a1.5,1.5,0,0,0-2.9.8Z" />
        <path class="cls-4"
          d="M11.12,174.67a4.33,4.33,0,0,0,.66,3.39,1.53,1.53,0,0,0,2.05.54,1.51,1.51,0,0,0,.54-2,3.42,3.42,0,0,1-.26-.4c.1.18-.06-.22-.07-.23l0-.16c0,.14,0,.12,0-.07s.05-.47,0-.23a1.5,1.5,0,0,0-2.9-.79Z" />
        <path class="cls-4"
          d="M9.23,181.85l1.47,3a1.5,1.5,0,0,0,2.59-1.51l-1.47-3a1.51,1.51,0,0,0-2.05-.54,1.53,1.53,0,0,0-.54,2Z" />
        <path class="cls-4" d="M19.2,164.38l-.52,2.26a1.5,1.5,0,1,0,2.89.79l.53-2.25a1.5,1.5,0,0,0-2.9-.8Z" />
        <path class="cls-4"
          d="M26,160c-4.55,4.19-9.17,9.57-6.95,16.18.61,1.82,3.51,1,2.89-.8-1.86-5.53,2.45-9.82,6.18-13.26,1.43-1.31-.7-3.43-2.12-2.12Z" />
        <path class="cls-4"
          d="M23.1,160.75a3.54,3.54,0,0,1-.19,1.86A1.51,1.51,0,0,0,24,164.46a1.54,1.54,0,0,0,1.85-1.05,6.32,6.32,0,0,0,.29-2.66,1.55,1.55,0,0,0-1.5-1.5c-.74,0-1.61.67-1.5,1.5Z" />
        <path class="cls-4"
          d="M25.45,158.6l-.58,2.75a1.54,1.54,0,0,0,1.05,1.84,1.52,1.52,0,0,0,1.85-1l.57-2.75a1.55,1.55,0,0,0-1.05-1.85,1.51,1.51,0,0,0-1.84,1Z" />
        <path class="cls-4"
          d="M30.13,159.26a19.53,19.53,0,0,0-5.82,8.08c-.7,1.8,2.2,2.58,2.9.8a16.51,16.51,0,0,1,5-6.76c1.49-1.22-.64-3.33-2.12-2.12Z" />
        <path class="cls-4"
          d="M33.17,162.29a17,17,0,0,1-11,9,1.51,1.51,0,0,0,.8,2.9A20,20,0,0,0,35.76,163.8c.87-1.72-1.72-3.24-2.59-1.51Z" />
        <path class="cls-4" d="M28.93,165.87l-.27,1.76a1.5,1.5,0,0,0,2.89.8l.27-1.76a1.5,1.5,0,0,0-2.89-.8Z" />
        <path class="cls-4" d="M26.62,167.53v2.26a1.5,1.5,0,0,0,3,0v-2.26a1.5,1.5,0,0,0-3,0Z" />
        <path class="cls-4"
          d="M32.89,171.59a8.15,8.15,0,0,0,6.47-3.45,1.5,1.5,0,0,0-2.59-1.51,5,5,0,0,1-3.88,2c-1.93,0-1.94,3,0,3Z" />
        <path class="cls-4"
          d="M34.14,175.33a19.73,19.73,0,0,0,9.74-1.2c1.79-.69,1-3.59-.79-2.89a18,18,0,0,1-9,1.09c-1.91-.25-1.89,2.76,0,3Z" />
        <path class="cls-4"
          d="M36.18,172.05c0,.36.1-.19,0,.16.07-.2,0,0,0,.09s.2-.13-.07.09.14-.07-.16.1a1.5,1.5,0,1,0,1.52,2.59,3.55,3.55,0,0,0,1.78-3,1.5,1.5,0,0,0-1.5-1.5,1.52,1.52,0,0,0-1.5,1.5Z" />
        <path class="cls-4"
          d="M42.1,184.36c-3.3,7.16-12.54,8.2-18.12,13-1.47,1.26.66,3.38,2.12,2.12,5.92-5.1,15-5.88,18.59-13.61.8-1.74-1.78-3.26-2.59-1.51Z" />
        <path class="cls-4"
          d="M39.22,185.71a5.39,5.39,0,0,1-1.87,2.85,1.5,1.5,0,0,0,0,2.12,1.54,1.54,0,0,0,2.12,0,8.07,8.07,0,0,0,2.64-4.18,1.5,1.5,0,0,0-2.89-.79Z" />
        <path class="cls-4"
          d="M34.64,188.64l-1.54,2.23a1.5,1.5,0,0,0,.53,2,1.54,1.54,0,0,0,2.06-.54l1.54-2.23a1.5,1.5,0,0,0-.53-2.05,1.54,1.54,0,0,0-2.06.54Z" />
        <path class="cls-4"
          d="M20.61,202.42c4.81,2.53,12.41-.52,16.81-2.85s10.74-7.88,11-13.42c.08-1.93-2.92-1.93-3,0-.16,4.06-6.32,9.14-9.48,10.83-2.89,1.54-10.58,4.53-13.78,2.85-1.71-.89-3.23,1.7-1.51,2.59Z" />
        <path class="cls-4"
          d="M39.88,194.93a3.18,3.18,0,0,0,3.82.53,1.5,1.5,0,1,0-1.51-2.59l-.07,0c.09,0,.07,0-.08,0l.12,0h-.07c.09,0,.09,0,0,0s-.09,0,0,0l-.12-.07c.12.1.12.09,0,0a1.51,1.51,0,0,0-2.12,0,1.53,1.53,0,0,0,0,2.12Z" />
        <path class="cls-4"
          d="M21.09,159c-2.12.2-3.53,1.39-4.89,3-1.91,2.19-3.76,4.43-5.64,6.64-1.25,1.47.86,3.6,2.12,2.12l4.23-5c1-1.22,2.43-3.57,4.18-3.73s1.92-3.18,0-3Z" />
        <path class="cls-4"
          d="M10.22,165.37c-3.81,2.49-7.15,5.9-8,10.55-.89,5,1.64,9.66,4.11,13.86A1.5,1.5,0,0,0,9,188.26c-2-3.36-4.18-7-3.81-11s3.25-7.09,6.59-9.27c1.61-1.05.1-3.65-1.52-2.59Z" />
        <path class="cls-4"
          d="M.43,176.39l2,2.25a1.51,1.51,0,0,0,2.12,0,1.53,1.53,0,0,0,0-2.12l-2-2.25a1.51,1.51,0,0,0-2.12,0,1.53,1.53,0,0,0,0,2.12Z" />
        <path class="cls-4"
          d="M7.17,183.44C4.31,180.6,7,172.87,8.89,170.15c1.11-1.58-1.49-3.08-2.59-1.51-2.82,4-5.24,13-1.26,16.93a1.51,1.51,0,0,0,2.13-2.13Z" />
        <path class="cls-4"
          d="M9.54,198.4A18.06,18.06,0,0,0,19.65,194c1.46-1.28-.67-3.39-2.12-2.12a14.51,14.51,0,0,1-8,3.56c-1.9.22-1.92,3.22,0,3Z" />
        <path class="cls-4"
          d="M10.93,195.5a4.78,4.78,0,0,1,.32-7.39c1.47-1.25-.66-3.36-2.13-2.12a7.77,7.77,0,0,0-.31,11.63c1.38,1.35,3.51-.77,2.12-2.12Z" />
        <path class="cls-4"
          d="M9.57,191.48l1.24-.53a1.51,1.51,0,0,0,.54-2,1.54,1.54,0,0,0-2-.54l-1.25.53a1.5,1.5,0,0,0-.53,2.05,1.54,1.54,0,0,0,2.05.54Z" />
        <path class="cls-4"
          d="M6.76,193.69a2.68,2.68,0,0,0,3,0,1.55,1.55,0,0,0,.54-2,1.51,1.51,0,0,0-2.06-.54c-.2.16-.27.17,0,.07s.17,0,0,0c.16.06.16.05,0,0a1.53,1.53,0,0,0-2.06.54,1.54,1.54,0,0,0,.54,2.05Z" />
        <path class="cls-4"
          d="M10.72,199.91a13.26,13.26,0,0,0,13.7-3.45c1.34-1.39-.78-3.51-2.12-2.12A10.29,10.29,0,0,1,11.51,197c-1.84-.6-2.63,2.3-.79,2.89Z" />
        <path class="cls-4"
          d="M18.59,193.41l-1.31,2.73a1.55,1.55,0,0,0,.54,2.06,1.52,1.52,0,0,0,2.05-.54l1.31-2.74a1.54,1.54,0,0,0-.53-2,1.53,1.53,0,0,0-2.06.54Z" />
        <path class="cls-4"
          d="M15.58,195.18a6.5,6.5,0,0,0-1,2.57,1.54,1.54,0,0,0,1,1.85,1.52,1.52,0,0,0,1.84-1,4.09,4.09,0,0,1,.71-1.86,1.5,1.5,0,0,0-2.59-1.51Z" />
        <path class="cls-4"
          d="M11.79,201.4c5.77,2.69,11.6,5.06,18,3.57,1.88-.44,1.08-3.33-.8-2.9-5.6,1.3-10.73-.94-15.72-3.26-1.74-.81-3.27,1.78-1.52,2.59Z" />
        <path class="cls-4"
          d="M13.78,175.84a5.5,5.5,0,0,1-.49-3.39,1.55,1.55,0,0,0-1-1.84,1.51,1.51,0,0,0-1.85,1,9,9,0,0,0,.8,5.7c.86,1.73,3.45.21,2.59-1.52Z" />
        <path class="cls-4"
          d="M11.39,182.05a5.41,5.41,0,0,1-1.13-3.48c.06-1.93-2.94-1.93-3,0a8,8,0,0,0,1.54,5,1.54,1.54,0,0,0,2,.54,1.52,1.52,0,0,0,.54-2Z" />
        <path class="cls-4" d="M9.55,181.84v2a1.5,1.5,0,0,0,3,0v-2a1.5,1.5,0,0,0-3,0Z" />
      </g>

      <path class="cls-2"
        d="M461.44,101.37a8.39,8.39,0,0,0-7.92-6.17,8.23,8.23,0,0,0-6.79,3.7,9.45,9.45,0,0,0-1.15,8c2.27,7.47,3.09,16.22-.16,18.94-1.86,1.55-5.48,1.92-8.74,2.14l-.38,0V97.52h-.05c0-.26.05-.51.05-.77,0-6.37-5.46-11.53-12.2-11.53s-12.19,5.16-12.19,11.53c0,.26,0,.51,0,.77h0V156l-.58,0c-3.31-.23-7-.6-8.9-2.15-3.33-2.71-2.48-11.47-.17-18.94a9.29,9.29,0,0,0-1.17-8,8.35,8.35,0,0,0-15,2.48A59.73,59.73,0,0,0,383.24,147c.09,10.53,4.15,16.6,7.54,19.84,5.25,5,12.14,6.24,16.87,6.72q2.09.21,4.26.33v40.88c8,.55,16.2-1.85,24.39-1.61V145.88c1.35-.08,2.69-.18,4-.31,4.63-.49,11.38-1.71,16.54-6.73,3.32-3.23,7.3-9.3,7.39-19.84A61,61,0,0,0,461.44,101.37Z" />
      
      <path class="cls-6"
        d="M315.67,34c-2.23-7.77-8.56-13-15.77-13a16.18,16.18,0,0,0-13.5,7.78,20.85,20.85,0,0,0-2.29,16.75c4.51,15.72,6.16,34.15-.33,39.87-3.69,3.25-10.9,4-17.37,4.51l-.78,0V25.88h-.08c0-.53.08-1.07.08-1.61a24.27,24.27,0,1,0-48.53,0c0,.54.05,1.08.08,1.61h-.08V149c-.38,0-.77,0-1.15-.06-6.59-.48-13.95-1.26-17.72-4.51-6.61-5.72-4.93-24.15-.33-39.87a20.51,20.51,0,0,0-2.33-16.75A16.58,16.58,0,0,0,181.79,80c-7.34,0-13.8,5.22-16.07,13-2.66,9.07-5.8,22.87-5.68,37.1.19,22.17,8.27,34.95,15,41.76C185.51,182.41,199.22,185,208.62,186c2.77.29,5.61.52,8.48.68v86c15.9,1.16,32.24-3.89,48.53-3.38V127.66q4-.24,8-.66c9.22-1,22.66-3.59,32.91-14.15,6.62-6.81,14.54-19.59,14.72-41.76C321.35,56.86,318.27,43.06,315.67,34Z" />
      
      <g id="tumbleweed-2">
        <circle class="cls-5" cx="640.24" cy="226" r="40" />
        <path class="cls-3"
          d="M659.6,190.31c-26.79,12.2-36.72,41.65-44.5,67.78-1.66,5.56,7,7.93,8.67,2.39,7.15-24,15.71-51.17,40.37-62.4,5.27-2.4.7-10.16-4.54-7.77Z" />
        <path class="cls-3"
          d="M638,188.42a36.52,36.52,0,0,0-6.44,23.19c.36,5.75,9.37,5.79,9,0A28.49,28.49,0,0,1,645.72,193c3.31-4.78-4.49-9.28-7.77-4.55Z" />
        <path class="cls-3"
          d="M647.41,181.48c-17-3.26-30.86,8.89-37.12,23.78a103.39,103.39,0,0,0-6.56,25.51c-1.19,8.31-.92,16.38,3,24,2.65,5.15,10.42.6,7.77-4.54-5.71-11.1-1-27.2,2.84-38.32,4-11.48,13.92-24.36,27.68-21.72,5.66,1.08,8.09-7.59,2.4-8.68Z" />
        <path class="cls-3"
          d="M621.17,204.79a77.62,77.62,0,0,0-7.08,55c1.35,5.63,10,3.24,8.68-2.4a68,68,0,0,1,6.17-48c2.73-5.1-5-9.65-7.77-4.54Z" />
        <path class="cls-3"
          d="M653.85,208.83A24.51,24.51,0,0,0,673.28,207c5.11-2.73.57-10.5-4.54-7.77a15.39,15.39,0,0,1-12.49.92c-5.51-1.83-7.88,6.86-2.4,8.68Z" />
        <path class="cls-3"
          d="M656.73,211.81c-6.19,17.4-21.79,28.21-37.92,35.6-5.26,2.41-.7,10.17,4.54,7.77,18.45-8.45,35.06-21.28,42.06-41,1.94-5.47-6.75-7.82-8.68-2.39Z" />
        <path class="cls-3"
          d="M642.23,217.08c.55,7.27-1.8,14.84,4.18,20.55,4.19,4,10.56-2.36,6.36-6.36-3.43-3.28-1.23-10-1.54-14.19-.44-5.74-9.44-5.79-9,0Z" />
        <path class="cls-3"
          d="M673.47,211.44c-1.9,10.94-7.85,20.39-17.42,26.2-9.2,5.58-20.1,7.66-30.64,9-5.67.7-5.74,9.71,0,9,12.64-1.55,25.68-3.93,36.52-11a46.09,46.09,0,0,0,20.22-30.73c1-5.66-7.69-8.09-8.68-2.39Z" />
        <path class="cls-3"
          d="M676.05,232.85a47.77,47.77,0,0,1-25.81,25.67A42.4,42.4,0,0,1,632.38,262c-7.45-.34-12.58-6.45-16.37-12.33-3.12-4.85-10.92-.35-7.77,4.54,4.27,6.61,10.35,13.94,18.29,16s17.24.24,24.65-2.5a57.42,57.42,0,0,0,33.54-32.53c2.18-5.37-6.53-7.7-8.67-2.39Z" />
        <path class="cls-3"
          d="M653.18,241.45c-2.54,4.36-8.13,4.79-12.48,6.32-4.87,1.73-10.17,6.53-15.5,5.22-5.63-1.39-8,7.29-2.39,8.68,8.47,2.09,14.23-3.21,21.83-5.72,6.46-2.13,12.64-3.66,16.31-9.95,2.92-5-4.85-9.56-7.77-4.55Z" />
        <path class="cls-3"
          d="M611.81,193.54c-6.56,6.17-12.36,12.69-13.33,22-1.06,10.17.87,20.87,4.26,30.43,1.92,5.42,10.62,3.08,8.68-2.39a67.15,67.15,0,0,1-4.14-24.86c.3-8.32,5.1-13.38,10.9-18.83,4.23-4-2.15-10.33-6.37-6.36Z" />
        <path class="cls-3"
          d="M651.4,183.38a30.08,30.08,0,0,0-9,10.56A4.62,4.62,0,0,0,644,200.1a4.55,4.55,0,0,0,6.15-1.62,20.65,20.65,0,0,1,5.81-7.33c1.93-1.47,2.94-3.88,1.61-6.16-1.11-1.9-4.21-3.09-6.15-1.61Z" />
        <path class="cls-4"
          d="M627,213.63a4.63,4.63,0,0,0,3.81-2.32,1.5,1.5,0,1,0-2.59-1.51,1.36,1.36,0,0,1-.51.57l-.26.15c-.21.1.17-.05,0,0l-.29.07c-.24.06.34,0-.11,0a1.5,1.5,0,0,0,0,3Z" />
        <path class="cls-4"
          d="M632.44,214.48c-8.36,10-16.68,20.49-17.8,33.92-.16,1.92,2.84,1.91,3,0,1.05-12.54,9.14-22.52,16.93-31.79,1.23-1.47-.88-3.61-2.13-2.13Z" />
        <path class="cls-4"
          d="M626.32,245.07a37.93,37.93,0,0,0,19.19-12.92c1.19-1.5-.92-3.64-2.12-2.13a35.17,35.17,0,0,1-17.87,12.15c-1.85.55-1.06,3.45.8,2.9Z" />
        <path class="cls-4"
          d="M640.33,221.84l1.53.51a1.5,1.5,0,1,0,.8-2.89l-1.53-.51a1.51,1.51,0,0,0-1.85,1,1.54,1.54,0,0,0,1.05,1.85Z" />
        <path class="cls-4" d="M638.65,228.48l6.61-2.12c1.83-.59,1-3.49-.79-2.89l-6.62,2.12c-1.83.59-1,3.49.8,2.89Z" />
        <path class="cls-4"
          d="M650.1,221.42l3-3.65a1.55,1.55,0,0,0,0-2.12,1.5,1.5,0,0,0-2.12,0l-3,3.65a1.55,1.55,0,0,0,0,2.12,1.51,1.51,0,0,0,2.12,0Z" />
        <path class="cls-4"
          d="M654.82,210.8l1.54,3.06a1.5,1.5,0,1,0,2.59-1.51l-1.54-3.06a1.52,1.52,0,0,0-2-.54,1.54,1.54,0,0,0-.54,2.05Z" />
        <path class="cls-4"
          d="M663,213.36c-7.89,12-16.44,31.32-32.44,33.28-1.89.23-1.91,3.23,0,3,17.57-2.15,26.36-21.61,35-34.77,1.06-1.61-1.53-3.12-2.59-1.51Z" />
        <path class="cls-4"
          d="M669.51,214.46c-2,5.76-3.6,12.29-6.69,17.6-3.37,5.78-9.43,8.2-15.42,10.4-1.79.66-1,3.56.8,2.89,5.7-2.09,11.69-4.37,15.56-9.3,4.5-5.74,6.25-14.07,8.64-20.79.65-1.83-2.25-2.61-2.89-.8Z" />
        <path class="cls-4" d="M659.32,234.3l-19,7.32c-1.79.69-1,3.59.79,2.89l19-7.32c1.78-.69,1-3.59-.8-2.89Z" />
        <path class="cls-4"
          d="M661.44,223.64a4,4,0,0,1,1.41,2.65,1.51,1.51,0,0,0,1.85,1,1.53,1.53,0,0,0,1-1.84,6.86,6.86,0,0,0-2.8-4.44,1.51,1.51,0,0,0-2.05.54,1.53,1.53,0,0,0,.54,2Z" />
        <path class="cls-4"
          d="M632.87,189.23c-16,10.29-21.64,28.89-22.27,47.05-.07,1.93,2.93,1.93,3,0,.59-17.05,5.68-34.76,20.78-44.46,1.62-1,.12-3.64-1.51-2.59Z" />
        <path class="cls-4"
          d="M615.36,205.86l1.33,5.66c.43,1.88,3.33,1.09,2.89-.79l-1.32-5.67c-.44-1.88-3.33-1.08-2.9.8Z" />
        <path class="cls-4"
          d="M612.3,211.72a7.19,7.19,0,0,0,1.17,5.71,1.54,1.54,0,0,0,2,.54,1.51,1.51,0,0,0,.54-2.05,4.28,4.28,0,0,1-.87-3.41c.36-1.88-2.53-2.69-2.89-.79Z" />
        <path class="cls-4"
          d="M608.29,225.14l3,6.16c.84,1.74,3.43.22,2.59-1.52l-3-6.16c-.85-1.73-3.43-.22-2.59,1.52Z" />
        <path class="cls-4"
          d="M628.73,190.8l-1.07,4.59c-.44,1.87,2.45,2.68,2.89.79l1.07-4.58c.44-1.88-2.45-2.68-2.89-.8Z" />
        <path class="cls-4"
          d="M642.1,182.65c-8.76,8-18.22,18.6-13.75,31.41.63,1.81,3.53,1,2.89-.8-4.09-11.74,5-21.18,13-28.49,1.43-1.31-.7-3.43-2.12-2.12Z" />
        <path class="cls-4"
          d="M636.7,183a9.06,9.06,0,0,1-.43,4.2c-.62,1.83,2.27,2.62,2.9.8a11.17,11.17,0,0,0,.53-5,1.55,1.55,0,0,0-1.5-1.5,1.51,1.51,0,0,0-1.5,1.5Z" />
        <path class="cls-4" d="M641.43,179l-1.16,5.59c-.4,1.88,2.49,2.69,2.89.8l1.16-5.59c.39-1.89-2.5-2.69-2.89-.8Z" />
        <path class="cls-4"
          d="M650.55,181.07a37.83,37.83,0,0,0-11.42,15.76c-.71,1.79,2.19,2.57,2.89.79a35,35,0,0,1,10.65-14.43c1.5-1.22-.64-3.33-2.12-2.12Z" />
        <path class="cls-4"
          d="M657,186.91a36.16,36.16,0,0,1-23.3,19,1.5,1.5,0,0,0,.8,2.89,39.1,39.1,0,0,0,25.1-20.32c.86-1.73-1.73-3.25-2.6-1.52Z" />
        <path class="cls-4"
          d="M648.51,193.84,648,197.4a1.56,1.56,0,0,0,1,1.85,1.52,1.52,0,0,0,1.85-1.05l.56-3.57a1.55,1.55,0,0,0-1-1.84,1.51,1.51,0,0,0-1.85,1.05Z" />
        <path class="cls-4" d="M643.86,196.79v4.59a1.5,1.5,0,0,0,3,0v-4.59a1.5,1.5,0,0,0-3,0Z" />
        <path class="cls-4"
          d="M655.07,203.49a14.85,14.85,0,0,0,11.82-6.24c1.14-1.56-1.46-3.05-2.59-1.51a11.66,11.66,0,0,1-9.23,4.75c-1.93,0-1.94,3,0,3Z" />
        <path class="cls-4"
          d="M657.61,211.1A39.07,39.07,0,0,0,677,208.72c1.79-.69,1-3.59-.79-2.89a37.45,37.45,0,0,1-18.62,2.27c-1.91-.24-1.89,2.76,0,3Z" />
        <path class="cls-4"
          d="M671.13,203.79a3.75,3.75,0,0,1-1.56,3.87c-1.59,1.07-.09,3.67,1.52,2.59A6.91,6.91,0,0,0,674,203c-.41-1.89-3.3-1.09-2.9.8Z" />
        <path class="cls-4"
          d="M663.32,206a2.52,2.52,0,0,1-1.38,2.23c-1.69.92-.18,3.51,1.52,2.59a5.55,5.55,0,0,0,2.86-4.82,1.5,1.5,0,0,0-3,0Z" />
        <path class="cls-4"
          d="M675.14,231.81c-6.59,15-25.72,16.75-37.1,26.76-1.45,1.27.68,3.39,2.13,2.12,11.68-10.29,30.72-11.8,37.56-27.37.77-1.75-1.81-3.28-2.59-1.51Z" />
        <path class="cls-4"
          d="M669.45,234.18a12.29,12.29,0,0,1-4.22,6.48c-1.49,1.22.64,3.33,2.13,2.12a15,15,0,0,0,5-7.81,1.5,1.5,0,0,0-2.89-.79Z" />
        <path class="cls-4"
          d="M660,240.51l-3.15,4.54c-1.1,1.59,1.5,3.09,2.59,1.51l3.15-4.53c1.1-1.59-1.49-3.09-2.59-1.52Z" />
        <path class="cls-4"
          d="M648.36,246.72A13.44,13.44,0,0,0,646.3,253c-.16,1.92,2.84,1.91,3,0a10.25,10.25,0,0,1,1.65-4.72c1-1.62-1.55-3.13-2.59-1.51Z" />
        <path class="cls-4"
          d="M630.87,266.43c4.13,2.72,8.76,1.64,13.29.61,6.36-1.45,12.76-3.08,18.61-6s10.27-7.11,14.48-11.86c3.71-4.2,8-8.51,7.78-14.5-.08-1.92-3.08-1.93-3,0,.24,5.69-5,10.38-8.6,14.27a42.57,42.57,0,0,1-12.17,9.5,68.73,68.73,0,0,1-13.81,4.75c-4.64,1.15-10.71,3.53-15.06.66-1.62-1.07-3.13,1.53-1.52,2.59Z" />
        <path class="cls-4"
          d="M677.85,246.51a6.74,6.74,0,0,0,7.13.16,1.5,1.5,0,0,0-1.52-2.59,3.73,3.73,0,0,1-4.09-.16c-1.62-1.07-3.12,1.53-1.52,2.59Z" />
        <path class="cls-4"
          d="M670.39,251.42a4.84,4.84,0,0,0,5.89.84,1.5,1.5,0,0,0-1.51-2.59,1.8,1.8,0,0,1-2.25-.37c-1.34-1.4-3.45.72-2.13,2.12Z" />
        <path class="cls-4"
          d="M667.41,258.55a16.24,16.24,0,0,0,9.53.58c1.88-.44,1.09-3.34-.79-2.9a13.31,13.31,0,0,1-7.94-.57c-1.81-.69-2.59,2.21-.8,2.89Z" />
        <path class="cls-4"
          d="M631.07,181c-3.86.36-6.39,2.71-8.85,5.55-3.88,4.46-7.65,9-11.48,13.51-1.24,1.46.87,3.59,2.12,2.12L621.47,192c2.51-3,5.37-7.66,9.6-8.05,1.9-.18,1.92-3.18,0-3Z" />
        <path class="cls-4"
          d="M609.75,193.74c-7.16,4.53-13.58,11.1-15.36,19.66-2.1,10.08,3.13,19.49,8.08,27.86a1.5,1.5,0,0,0,2.59-1.51c-4.44-7.52-9.41-15.94-7.85-25,1.38-8.06,7.39-14.18,14-18.4,1.63-1,.13-3.63-1.51-2.59Z" />
        <path class="cls-4" d="M602.63,194.75l-.11,5.61c0,1.93,3,1.93,3,0l.11-5.61c0-1.93-3-1.93-3,0Z" />
        <path class="cls-4"
          d="M597,201a8.32,8.32,0,0,0,1.14,5.76c1,1.63,3.62.13,2.59-1.51a5.16,5.16,0,0,1-.84-3.46,1.53,1.53,0,0,0-1-1.84A1.52,1.52,0,0,0,597,201Z" />
        <path class="cls-4"
          d="M590.14,213.71l4.09,4.59c1.29,1.44,3.4-.68,2.12-2.12l-4.09-4.59c-1.28-1.45-3.4.68-2.12,2.12Z" />
        <path class="cls-4"
          d="M591.68,223.92a15.1,15.1,0,0,1,2.94,4.22c.83,1.74,3.42.22,2.59-1.51a17.41,17.41,0,0,0-3.41-4.83,1.5,1.5,0,0,0-2.12,2.12Z" />
        <path class="cls-4"
          d="M601.65,230.26c-3.95-3.79-2.62-10.07-1.82-14.9.83-5,2.09-9.82,5.09-14,1.13-1.57-1.48-3.07-2.59-1.51-3.85,5.38-5.06,11.77-5.92,18.22-.68,5.14-.9,10.48,3.12,14.33,1.39,1.34,3.52-.78,2.12-2.12Z" />
        <path class="cls-4"
          d="M607.58,258a34.87,34.87,0,0,0,19.47-8.58c1.45-1.27-.68-3.39-2.12-2.12a31.36,31.36,0,0,1-17.35,7.7c-1.9.22-1.92,3.22,0,3Z" />
        <path class="cls-4"
          d="M609.31,254.78a11.27,11.27,0,0,1,.64-17.23c1.48-1.25-.65-3.36-2.12-2.12a14.26,14.26,0,0,0-.65,21.47c1.39,1.35,3.51-.77,2.13-2.12Z" />
        <path class="cls-4"
          d="M606.85,244.16l2.53-1.07a1.51,1.51,0,0,0,.54-2.05,1.53,1.53,0,0,0-2-.54l-2.53,1.07a1.51,1.51,0,0,0-.54,2.05,1.53,1.53,0,0,0,2.05.54Z" />
        <path class="cls-4"
          d="M602.71,248.66a4,4,0,0,0,4.87-.29,1.51,1.51,0,0,0,0-2.13,1.55,1.55,0,0,0-2.12,0c-.31.26-.79.16-1.23-.17a1.52,1.52,0,0,0-2.06.54,1.54,1.54,0,0,0,.54,2Z" />
        <path class="cls-4"
          d="M610.38,261.16a25.46,25.46,0,0,0,26.36-6.61c1.34-1.39-.78-3.52-2.12-2.12a22.42,22.42,0,0,1-23.44,5.84c-1.84-.6-2.63,2.3-.8,2.89Z" />
        <path class="cls-4"
          d="M627.33,250.21l-2.67,5.56c-.83,1.74,1.75,3.26,2.59,1.52l2.67-5.56c.83-1.74-1.75-3.26-2.59-1.52Z" />
        <path class="cls-4"
          d="M621.2,253.81a12,12,0,0,0-1.9,4.86,1.56,1.56,0,0,0,1.05,1.85,1.51,1.51,0,0,0,1.84-1,10,10,0,0,1,1.6-4.15c1.08-1.61-1.52-3.11-2.59-1.51Z" />
        <path class="cls-4"
          d="M612.94,264.35c11.24,5.24,22.93,10.21,35.5,7.09,1.87-.46,1.08-3.36-.8-2.89-11.71,2.9-22.74-1.92-33.19-6.79-1.73-.81-3.26,1.77-1.51,2.59Z" />
        <path class="cls-4"
          d="M614.87,214.48a13,13,0,0,1-1.17-8.09c.33-1.88-2.56-2.69-2.89-.79a16.48,16.48,0,0,0,1.47,10.4c.85,1.73,3.44.21,2.59-1.52Z" />
        <path class="cls-4"
          d="M610,227.1a12.32,12.32,0,0,1-2.5-7.85c.06-1.93-2.94-1.93-3,0a15,15,0,0,0,2.91,9.36c1.14,1.54,3.75,0,2.59-1.51Z" />
        <path class="cls-4" d="M609.14,225.89V230a1.5,1.5,0,0,0,3,0v-4.09a1.5,1.5,0,0,0-3,0Z" />
      </g>
    </g>
  </g>
</svg>
