<?xml version="1.0" standalone="no"?>
<!DOCTYPE svg PUBLIC "-//W3C//DTD SVG 20010904//EN"
 "http://www.w3.org/TR/2001/REC-SVG-20010904/DTD/svg10.dtd">
<svg version="1.0" xmlns="http://www.w3.org/2000/svg"
 width="166.000000pt" height="166.000000pt" viewBox="0 0 166.000000 166.000000"
 preserveAspectRatio="xMidYMid meet">
<metadata>
Created by potrace 1.11, written by Peter Selinger 2001-2013
</metadata>
<g transform="translate(0.000000,166.000000) scale(0.100000,-0.100000)"
fill="#000000" stroke="none">
<path d="M1095 1637 c-116 -56 -176 -185 -140 -303 l13 -44 -184 -184 -184
-184 -52 19 c-132 51 -291 -26 -329 -159 -35 -124 15 -247 125 -305 58 -30
174 -30 232 0 l41 22 56 -57 56 -57 -17 -30 c-23 -42 -22 -159 1 -206 79 -160
288 -197 412 -74 98 99 99 257 2 356 -25 24 -65 51 -90 61 -55 20 -150 18
-192 -4 l-29 -16 -59 58 -58 58 7 49 c10 57 6 130 -7 155 -5 9 -9 23 -9 31 0
8 81 96 181 195 l180 180 37 -21 c54 -32 160 -31 226 3 121 62 171 209 112
335 -40 87 -111 134 -214 141 -57 4 -75 1 -117 -19z m160 -113 c102 -48 97
-192 -7 -240 -91 -41 -193 35 -181 135 12 93 104 145 188 105z m-721 -710 c34
-22 66 -87 60 -122 -13 -70 -57 -112 -127 -119 -102 -10 -174 107 -120 198 37
64 125 84 187 43z m471 -444 c69 -33 93 -111 57 -179 -36 -67 -121 -90 -183
-48 -113 75 -67 237 70 246 8 1 33 -8 56 -19z"/>
</g>
</svg>
