<?xml version="1.0" standalone="no"?>
<!DOCTYPE svg PUBLIC "-//W3C//DTD SVG 20010904//EN"
 "http://www.w3.org/TR/2001/REC-SVG-20010904/DTD/svg10.dtd">
<svg version="1.0" xmlns="http://www.w3.org/2000/svg"
 width="344.000000pt" height="344.000000pt" viewBox="0 0 344.000000 344.000000"
 preserveAspectRatio="xMidYMid meet">
<metadata>
Created by potrace 1.11, written by Peter Selinger 2001-2013
</metadata>
<g transform="translate(0.000000,344.000000) scale(0.100000,-0.100000)"
fill="#000000" stroke="none">
<path d="M2338 3425 c-202 -50 -365 -214 -412 -414 -13 -58 -14 -197 -2 -255
4 -16 13 -43 20 -61 l14 -32 -357 -356 -356 -356 -37 20 c-108 56 -278 66
-403 24 -381 -127 -510 -595 -248 -894 166 -190 438 -243 666 -131 l61 31 89
-89 89 -89 -26 -73 c-153 -422 219 -833 659 -729 191 45 364 223 404 417 63
302 -120 591 -419 662 -107 26 -263 10 -352 -36 -27 -14 -28 -13 -132 91
l-105 105 15 43 c35 96 28 270 -16 371 l-18 43 349 349 348 348 58 -27 c83
-40 165 -56 258 -52 91 4 119 9 178 32 81 33 133 67 197 133 112 114 162 248
156 415 -9 228 -154 420 -376 495 -81 28 -221 34 -302 15z m229 -333 c81 -42
126 -116 126 -207 2 -217 -277 -312 -409 -140 -55 72 -63 161 -22 243 56 112
196 160 305 104z m-1486 -1423 c104 -52 149 -184 101 -293 -79 -177 -331 -182
-412 -8 -94 198 116 401 311 301z m931 -890 c96 -22 171 -119 172 -219 0 -211
-255 -309 -395 -153 -47 51 -62 100 -57 174 6 89 64 163 150 192 50 17 76 19
130 6z"/>
</g>
</svg>
